<svg width="14" height="19" viewBox="0 0 14 19" fill="none" xmlns="http://www.w3.org/2000/svg">
<path d="M7.00003 10.7135C6.38471 10.7135 5.78321 10.5358 5.27159 10.2029C4.75997 9.87006 4.36121 9.39693 4.12574 8.84338C3.89026 8.28983 3.82865 7.68072 3.9487 7.09307C4.06874 6.50542 4.36504 5.96563 4.80014 5.54196C5.23524 5.11829 5.78958 4.82976 6.39308 4.71287C6.99658 4.59598 7.62212 4.65598 8.1906 4.88526C8.75908 5.11455 9.24497 5.50284 9.58682 6.00103C9.92867 6.49921 10.1111 7.08491 10.1111 7.68408C10.1101 8.48723 9.78206 9.25721 9.19882 9.82513C8.61559 10.393 7.82484 10.7125 7.00003 10.7135ZM7.00003 5.86643C6.63084 5.86643 6.26994 5.97303 5.96296 6.17276C5.65599 6.37248 5.41674 6.65636 5.27545 6.98849C5.13417 7.32062 5.0972 7.68609 5.16923 8.03868C5.24125 8.39127 5.41904 8.71514 5.6801 8.96935C5.94115 9.22355 6.27376 9.39666 6.63586 9.4668C6.99796 9.53693 7.37328 9.50094 7.71437 9.36336C8.05546 9.22579 8.34699 8.99282 8.5521 8.69391C8.75722 8.395 8.86669 8.04357 8.86669 7.68408C8.8662 7.20215 8.66937 6.74011 8.31941 6.39934C7.96945 6.05857 7.49495 5.86691 7.00003 5.86643Z" fill="black"/>
<path d="M7 18.1765L1.63164 11.718C1.55705 11.621 1.48323 11.5234 1.41019 11.4252C0.493176 10.193 -0.0022153 8.68785 7.44728e-06 7.14076C7.44728e-06 5.24691 0.737505 3.43063 2.05026 2.09148C3.36301 0.752328 5.14349 0 7 0C8.85651 0 10.637 0.752328 11.9497 2.09148C13.2625 3.43063 14 5.24691 14 7.14076C14.0022 8.68715 13.507 10.1916 12.5904 11.4233L12.5898 11.4252C12.5898 11.4252 12.3989 11.681 12.3703 11.7154L7 18.1765ZM2.42646 10.643C2.42646 10.643 2.57473 10.8429 2.60846 10.8858L7 16.1693L11.3973 10.8786C11.4253 10.8429 11.5742 10.6417 11.5748 10.641C12.3239 9.63425 12.7287 8.40469 12.7273 7.14076C12.7273 5.59125 12.1239 4.1052 11.0498 3.00953C9.97572 1.91386 8.51897 1.29832 7 1.29832C5.48103 1.29832 4.02428 1.91386 2.95021 3.00953C1.87614 4.1052 1.27273 5.59125 1.27273 7.14076C1.2714 8.40547 1.67668 9.63574 2.42646 10.643Z" fill="black"/>
</svg>
