<svg width="46" height="46" viewBox="0 0 46 46" fill="none" xmlns="http://www.w3.org/2000/svg">
<path d="M23 46C19.8183 46 16.8283 45.3963 14.03 44.1888C11.2317 42.9813 8.7975 41.3425 6.7275 39.2725C4.6575 37.2025 3.01875 34.7683 1.81125 31.97C0.60375 29.1717 0 26.1817 0 23C0 19.8183 0.60375 16.8283 1.81125 14.03C3.01875 11.2317 4.6575 8.7975 6.7275 6.7275C8.7975 4.6575 11.2317 3.01875 14.03 1.81125C16.8283 0.60375 19.8183 0 23 0C26.1817 0 29.1717 0.60375 31.97 1.81125C34.7683 3.01875 37.2025 4.6575 39.2725 6.7275C41.3425 8.7975 42.9813 11.2317 44.1888 14.03C45.3963 16.8283 46 19.8183 46 23C46 26.1817 45.3963 29.1717 44.1888 31.97C42.9813 34.7683 41.3425 37.2025 39.2725 39.2725C37.2025 41.3425 34.7683 42.9813 31.97 44.1888C29.1717 45.3963 26.1817 46 23 46ZM23 41.4C28.1367 41.4 32.4875 39.6175 36.0525 36.0525C39.6175 32.4875 41.4 28.1367 41.4 23C41.4 22.7317 41.3904 22.4538 41.3713 22.1663C41.3521 21.8787 41.3425 21.6392 41.3425 21.4475C41.1508 22.5592 40.6333 23.4792 39.79 24.2075C38.9467 24.9358 37.95 25.3 36.8 25.3H32.2C30.935 25.3 29.8521 24.8496 28.9513 23.9487C28.0504 23.0479 27.6 21.965 27.6 20.7V18.4H18.4V13.8C18.4 12.535 18.8504 11.4521 19.7513 10.5513C20.6521 9.65042 21.735 9.2 23 9.2H25.3C25.3 8.31833 25.5396 7.54208 26.0188 6.87125C26.4979 6.20042 27.0825 5.65417 27.7725 5.2325C27.0058 5.04083 26.2296 4.8875 25.4438 4.7725C24.6579 4.6575 23.8433 4.6 23 4.6C17.8633 4.6 13.5125 6.3825 9.9475 9.9475C6.3825 13.5125 4.6 17.8633 4.6 23H16.1C18.63 23 20.7958 23.9008 22.5975 25.7025C24.3992 27.5042 25.3 29.67 25.3 32.2V34.5H18.4V40.825C19.1667 41.0167 19.9237 41.1604 20.6713 41.2563C21.4188 41.3521 22.195 41.4 23 41.4Z" fill="black"/>
</svg>
