<svg width="26" height="23" viewBox="0 0 26 23" fill="none" xmlns="http://www.w3.org/2000/svg">
<path d="M13 6.25C13.8571 2.79594 17.0945 1.03227 24.1429 1C24.2555 0.999567 24.3672 1.0219 24.4714 1.06572C24.5756 1.10954 24.6702 1.17398 24.7499 1.25532C24.8296 1.33665 24.8927 1.43328 24.9356 1.53964C24.9785 1.646 25.0004 1.75997 25 1.875V17.625C25 17.8571 24.9097 18.0796 24.7489 18.2437C24.5882 18.4078 24.3702 18.5 24.1429 18.5C17.2857 18.5 14.6366 19.9115 13 22M13 6.25C12.1429 2.79594 8.90552 1.03227 1.85715 1C1.74447 0.999567 1.63282 1.0219 1.52863 1.06572C1.42445 1.10954 1.32979 1.17398 1.25011 1.25532C1.17043 1.33665 1.10731 1.43328 1.06439 1.53964C1.02146 1.646 0.99958 1.75997 1.00001 1.875V17.5194C1.00001 18.0598 1.32786 18.5 1.85715 18.5C8.71427 18.5 11.373 19.9219 13 22M13 6.25V22" stroke="black" stroke-width="2" stroke-linecap="round" stroke-linejoin="round"/>
</svg>
