<svg xmlns="http://www.w3.org/2000/svg" xmlns:xlink="http://www.w3.org/1999/xlink" width="1024" zoomAndPan="magnify" viewBox="0 0 768 767.999994" height="1024" preserveAspectRatio="xMidYMid meet" version="1.0"><defs><clipPath id="cb40fb5bff"><path d="M 0 221 L 525 221 L 525 767.96875 L 0 767.96875 Z M 0 221 " clip-rule="nonzero"/></clipPath><clipPath id="21aa17cf71"><path d="M 204 6.71875 L 763 6.71875 L 763 568 L 204 568 Z M 204 6.71875 " clip-rule="nonzero"/></clipPath></defs><g clip-path="url(#cb40fb5bff)"><path fill="#000000" d="M 481.675781 313.769531 L 305.40625 229.617188 C 293.570312 223.964844 277.964844 221.136719 262.359375 221.136719 C 246.753906 221.136719 231.152344 223.964844 219.3125 229.617188 L 43.046875 313.769531 C 19.371094 325.074219 0 355.785156 0 382.019531 L 0 584.71875 C 0 610.953125 18.664062 643.023438 41.476562 655.980469 L 220.882812 757.90625 C 232.289062 764.386719 247.324219 767.625 262.359375 767.625 C 277.394531 767.625 292.429688 764.386719 303.835938 757.90625 L 483.242188 655.980469 C 506.058594 643.023438 524.71875 610.953125 524.71875 584.71875 L 524.71875 382.019531 C 524.71875 355.785156 505.351562 325.074219 481.675781 313.769531 Z M 262.359375 320.363281 C 285.410156 320.363281 304.097656 331.042969 304.097656 344.222656 C 304.097656 357.386719 285.410156 368.066406 262.359375 368.066406 C 239.308594 368.066406 220.621094 357.386719 220.621094 344.222656 C 220.621094 331.042969 239.308594 320.363281 262.359375 320.363281 Z M 94.140625 624.570312 C 91.59375 625.835938 88.878906 626.441406 86.089844 626.441406 C 73.898438 626.441406 60.246094 614.933594 52.773438 597.019531 C 43.589844 575.003906 47.222656 551.644531 60.886719 544.839844 C 63.433594 543.570312 66.148438 542.96875 68.941406 542.96875 C 81.132812 542.96875 94.789062 554.472656 102.257812 572.386719 C 111.441406 594.402344 107.808594 617.765625 94.140625 624.570312 Z M 94.140625 493.394531 C 91.59375 494.660156 88.878906 495.265625 86.089844 495.265625 C 73.898438 495.265625 60.246094 483.757812 52.773438 465.84375 C 43.589844 443.828125 47.222656 420.46875 60.886719 413.664062 C 63.433594 412.394531 66.148438 411.792969 68.941406 411.792969 C 81.132812 411.792969 94.789062 423.296875 102.257812 441.210938 C 111.441406 463.226562 107.808594 486.589844 94.140625 493.394531 Z M 213.394531 690.160156 C 210.851562 691.425781 208.132812 692.03125 205.34375 692.03125 C 193.15625 692.03125 179.5 680.523438 172.027344 662.609375 C 162.84375 640.59375 166.480469 617.230469 180.140625 610.429688 C 182.6875 609.160156 185.402344 608.554688 188.195312 608.554688 C 200.390625 608.554688 214.042969 620.0625 221.511719 637.976562 C 230.699219 659.992188 227.0625 683.351562 213.394531 690.160156 Z M 213.394531 558.984375 C 210.851562 560.25 208.132812 560.855469 205.34375 560.855469 C 193.15625 560.855469 179.5 549.347656 172.027344 531.433594 C 162.84375 509.417969 166.480469 486.054688 180.140625 479.25 C 182.6875 477.980469 185.402344 477.378906 188.195312 477.378906 C 200.390625 477.378906 214.042969 488.886719 221.511719 506.800781 C 230.699219 528.816406 227.0625 552.175781 213.394531 558.984375 Z M 352.691406 662.609375 C 345.222656 680.523438 331.566406 692.03125 319.375 692.03125 C 316.585938 692.03125 313.871094 691.425781 311.324219 690.160156 C 297.660156 683.351562 294.023438 659.992188 303.207031 637.976562 C 310.675781 620.0625 324.332031 608.554688 336.523438 608.554688 C 339.316406 608.554688 342.03125 609.160156 344.582031 610.429688 C 358.242188 617.230469 361.878906 640.59375 352.691406 662.609375 Z M 352.691406 531.433594 C 345.222656 549.347656 331.566406 560.855469 319.375 560.855469 C 316.585938 560.855469 313.871094 560.25 311.324219 558.984375 C 297.660156 552.175781 294.023438 528.816406 303.207031 506.800781 C 310.675781 488.886719 324.332031 477.378906 336.523438 477.378906 C 339.316406 477.378906 342.03125 477.980469 344.582031 479.25 C 358.242188 486.054688 361.878906 509.417969 352.691406 531.433594 Z M 471.945312 597.019531 C 464.476562 614.933594 450.820312 626.441406 438.628906 626.441406 C 435.839844 626.441406 433.125 625.835938 430.582031 624.570312 C 416.914062 617.765625 413.277344 594.402344 422.464844 572.386719 C 429.929688 554.472656 443.585938 542.96875 455.78125 542.96875 C 458.570312 542.96875 461.289062 543.570312 463.835938 544.839844 C 477.496094 551.644531 481.132812 575.003906 471.945312 597.019531 Z M 471.945312 465.84375 C 464.476562 483.757812 450.820312 495.265625 438.628906 495.265625 C 435.839844 495.265625 433.125 494.660156 430.582031 493.394531 C 416.914062 486.589844 413.277344 463.226562 422.464844 441.210938 C 429.929688 423.296875 443.585938 411.792969 455.78125 411.792969 C 458.570312 411.792969 461.289062 412.394531 463.835938 413.664062 C 477.496094 420.46875 481.132812 443.828125 471.945312 465.84375 Z M 489.492188 365.855469 L 274.285156 484.414062 L 274.285156 733.769531 C 274.285156 740.355469 268.945312 745.695312 262.359375 745.695312 C 255.773438 745.695312 250.433594 740.355469 250.433594 733.769531 L 250.433594 485.320312 L 33.503906 364.101562 C 27.746094 360.894531 25.679688 353.632812 28.882812 347.878906 C 32.085938 342.128906 39.347656 340.066406 45.101562 343.257812 L 261.546875 464.207031 L 477.957031 344.980469 C 483.730469 341.800781 490.980469 343.890625 494.160156 349.648438 C 497.347656 355.414062 495.257812 362.671875 489.492188 365.855469 Z M 489.492188 365.855469 " fill-opacity="1" fill-rule="nonzero"/></g><g clip-path="url(#21aa17cf71)"><path fill="#000000" d="M 693.695312 136.746094 C 684.949219 112.011719 657.550781 84.621094 632.816406 75.871094 L 447.484375 10.316406 C 440.683594 7.914062 433.082031 6.773438 425.238281 6.773438 C 404.554688 6.773438 382.234375 14.691406 368.785156 28.140625 L 224.535156 172.382812 C 215.125 181.796875 208.0625 195.675781 204.285156 210.363281 L 209.039062 208.09375 C 223.632812 201.125 242.566406 197.289062 262.359375 197.289062 C 264.132812 197.289062 265.890625 197.355469 267.648438 197.417969 C 274.644531 189.8125 282.765625 185.214844 290.265625 185.214844 C 292.261719 185.214844 294.210938 185.53125 296.082031 186.195312 C 303.296875 188.757812 307.882812 195.964844 309.441406 205.425781 C 311.59375 206.257812 313.6875 207.140625 315.683594 208.09375 L 390.945312 244.023438 C 399.046875 230.03125 410.863281 220.988281 421.445312 220.988281 C 423.445312 220.988281 425.390625 221.308594 427.265625 221.972656 C 440.175781 226.550781 444.726562 245.96875 438.398438 266.679688 L 469.453125 281.503906 L 475.582031 275.316406 L 410.828125 43.972656 C 409.042969 37.632812 412.730469 31.042969 419.070312 29.257812 C 425.425781 27.476562 432 31.15625 433.78125 37.496094 L 499.179688 271.136719 L 731.28125 337.332031 C 737.613281 339.140625 741.28125 345.742188 739.472656 352.074219 C 737.976562 357.308594 733.199219 360.726562 728.011719 360.726562 C 727.039062 360.726562 538.019531 306.976562 498.320312 295.683594 C 511.660156 303.640625 523.472656 315.789062 532.289062 329.828125 C 539.777344 331.910156 545.402344 336.121094 547.585938 342.292969 C 549.492188 347.65625 548.535156 353.675781 545.386719 359.550781 C 547.414062 367.050781 548.570312 374.628906 548.570312 382.019531 L 548.570312 567.320312 C 566.996094 564.660156 585.511719 556.679688 597.179688 545.015625 L 741.425781 400.773438 C 759.976562 382.21875 767.996094 346.804688 759.25 322.074219 Z M 400.90625 145.195312 C 393.335938 161.902344 378.527344 173.289062 365.628906 173.289062 C 363.632812 173.289062 361.6875 173.015625 359.8125 172.449219 C 345.863281 168.207031 341.65625 149.121094 350.402344 129.832031 C 357.96875 113.125 372.777344 101.738281 385.671875 101.738281 C 387.667969 101.738281 389.617188 102.011719 391.488281 102.582031 C 405.441406 106.820312 409.65625 125.90625 400.90625 145.195312 Z M 609.4375 228.203125 C 606.242188 231.394531 601.761719 232.914062 596.582031 232.914062 C 585.882812 232.914062 572.191406 226.441406 560.636719 214.886719 C 543.484375 197.734375 537.527344 175.878906 547.320312 166.085938 C 550.523438 162.882812 555.007812 161.363281 560.195312 161.363281 C 570.894531 161.363281 584.578125 167.839844 596.128906 179.390625 C 613.285156 196.542969 619.246094 218.394531 609.4375 228.203125 Z M 646.976562 419.15625 C 639.035156 422.242188 631.121094 423.714844 623.988281 423.714844 C 610.914062 423.714844 600.460938 418.765625 597.257812 409.746094 C 592.308594 395.789062 606.539062 377.394531 629.050781 368.648438 C 636.992188 365.5625 644.90625 364.089844 652.039062 364.089844 C 665.117188 364.089844 675.570312 369.042969 678.769531 378.070312 C 683.714844 392.015625 669.488281 410.414062 646.976562 419.15625 Z M 646.976562 419.15625 " fill-opacity="1" fill-rule="nonzero"/></g></svg>