<svg width="43" height="40" viewBox="0 0 43 40" fill="none" xmlns="http://www.w3.org/2000/svg">
<path d="M15.05 0L11.1155 4.44444H4.3C1.935 4.44444 0 6.44444 0 8.88889V35.5556C0 38 1.935 40 4.3 40H38.7C41.065 40 43 38 43 35.5556V8.88889C43 6.44444 41.065 4.44444 38.7 4.44444H31.8845L27.95 0H15.05ZM21.5 33.3333C15.566 33.3333 10.75 28.3556 10.75 22.2222C10.75 16.0889 15.566 11.1111 21.5 11.1111C27.434 11.1111 32.25 16.0889 32.25 22.2222C32.25 28.3556 27.434 33.3333 21.5 33.3333Z" fill="black"/>
<path d="M21.5 31L24.1562 24.8125L30 22L24.1562 19.1875L21.5 13L18.8438 19.1875L13 22L18.8438 24.8125L21.5 31Z" fill="black"/>
</svg>
