<svg width="170" height="49" viewBox="0 0 170 49" fill="none" xmlns="http://www.w3.org/2000/svg">
<g filter="url(#filter0_d_144_47)">
<rect x="4.5" y="0.5" width="161" height="40" rx="15.5" stroke="black" shape-rendering="crispEdges"/>
</g>
<path d="M41.4716 17.5625C41.4186 17.0663 41.1951 16.6799 40.8011 16.4034C40.411 16.1269 39.9034 15.9886 39.2784 15.9886C38.839 15.9886 38.4621 16.0549 38.1477 16.1875C37.8333 16.3201 37.5928 16.5 37.4261 16.7273C37.2595 16.9545 37.1742 17.214 37.1705 17.5057C37.1705 17.7481 37.2254 17.9583 37.3352 18.1364C37.4489 18.3144 37.6023 18.4659 37.7955 18.5909C37.9886 18.7121 38.2027 18.8144 38.4375 18.8977C38.6723 18.9811 38.9091 19.0511 39.1477 19.108L40.2386 19.3807C40.678 19.483 41.1004 19.6212 41.5057 19.7955C41.9148 19.9697 42.2803 20.1894 42.6023 20.4545C42.928 20.7197 43.1856 21.0398 43.375 21.4148C43.5644 21.7898 43.6591 22.2292 43.6591 22.733C43.6591 23.4148 43.4848 24.0152 43.1364 24.5341C42.7879 25.0492 42.2841 25.4527 41.625 25.7443C40.9697 26.0322 40.1761 26.1761 39.2443 26.1761C38.339 26.1761 37.553 26.036 36.8864 25.7557C36.2235 25.4754 35.7045 25.0663 35.3295 24.5284C34.9583 23.9905 34.7576 23.3352 34.7273 22.5625H36.8011C36.8314 22.9678 36.9564 23.3049 37.1761 23.5739C37.3958 23.8428 37.6818 24.0436 38.0341 24.1761C38.3902 24.3087 38.7879 24.375 39.2273 24.375C39.6856 24.375 40.0871 24.3068 40.4318 24.1705C40.7803 24.0303 41.053 23.8371 41.25 23.5909C41.447 23.3409 41.5473 23.0492 41.5511 22.7159C41.5473 22.4129 41.4583 22.1629 41.2841 21.9659C41.1098 21.7652 40.8655 21.5985 40.5511 21.4659C40.2405 21.3295 39.8769 21.2083 39.4602 21.1023L38.1364 20.7614C37.178 20.5152 36.4205 20.142 35.8636 19.642C35.3106 19.1383 35.0341 18.4697 35.0341 17.6364C35.0341 16.9508 35.2197 16.3504 35.5909 15.8352C35.9659 15.3201 36.4754 14.9205 37.1193 14.6364C37.7633 14.3485 38.4924 14.2045 39.3068 14.2045C40.1326 14.2045 40.8561 14.3485 41.4773 14.6364C42.1023 14.9205 42.5928 15.3163 42.9489 15.8239C43.3049 16.3277 43.4886 16.9072 43.5 17.5625H41.4716ZM49.3111 26.1705C48.4361 26.1705 47.6804 25.9886 47.044 25.625C46.4115 25.2576 45.9247 24.7386 45.5838 24.0682C45.2429 23.3939 45.0724 22.6004 45.0724 21.6875C45.0724 20.7898 45.2429 20.0019 45.5838 19.3239C45.9285 18.642 46.4096 18.1117 47.027 17.733C47.6444 17.3504 48.3698 17.1591 49.2031 17.1591C49.741 17.1591 50.2486 17.2462 50.7259 17.4205C51.2069 17.5909 51.6312 17.8561 51.9986 18.2159C52.3698 18.5758 52.6615 19.0341 52.8736 19.5909C53.0857 20.1439 53.1918 20.803 53.1918 21.5682V22.1989H46.0384V20.8125H51.2202C51.2164 20.4186 51.1312 20.0682 50.9645 19.7614C50.7978 19.4508 50.5649 19.2064 50.2656 19.0284C49.9702 18.8504 49.6255 18.7614 49.2315 18.7614C48.8111 18.7614 48.4418 18.8636 48.1236 19.0682C47.8054 19.2689 47.5573 19.5341 47.3793 19.8636C47.205 20.1894 47.116 20.5473 47.1122 20.9375V22.1477C47.1122 22.6553 47.205 23.0909 47.3906 23.4545C47.5762 23.8144 47.8357 24.0909 48.169 24.2841C48.5024 24.4735 48.8925 24.5682 49.3395 24.5682C49.6387 24.5682 49.9096 24.5265 50.152 24.4432C50.3944 24.3561 50.6046 24.2292 50.7827 24.0625C50.9607 23.8958 51.0952 23.6894 51.1861 23.4432L53.1065 23.6591C52.9853 24.1667 52.7543 24.6098 52.4134 24.9886C52.0762 25.3636 51.6444 25.6553 51.1179 25.8636C50.5914 26.0682 49.9891 26.1705 49.3111 26.1705ZM56.9886 14.3636V26H54.9318V14.3636H56.9886ZM62.9673 26.1705C62.0923 26.1705 61.3366 25.9886 60.7003 25.625C60.0677 25.2576 59.581 24.7386 59.2401 24.0682C58.8991 23.3939 58.7287 22.6004 58.7287 21.6875C58.7287 20.7898 58.8991 20.0019 59.2401 19.3239C59.5848 18.642 60.0658 18.1117 60.6832 17.733C61.3007 17.3504 62.026 17.1591 62.8594 17.1591C63.3973 17.1591 63.9048 17.2462 64.3821 17.4205C64.8632 17.5909 65.2874 17.8561 65.6548 18.2159C66.026 18.5758 66.3177 19.0341 66.5298 19.5909C66.742 20.1439 66.848 20.803 66.848 21.5682V22.1989H59.6946V20.8125H64.8764C64.8726 20.4186 64.7874 20.0682 64.6207 19.7614C64.4541 19.4508 64.2211 19.2064 63.9219 19.0284C63.6264 18.8504 63.2817 18.7614 62.8878 18.7614C62.4673 18.7614 62.098 18.8636 61.7798 19.0682C61.4616 19.2689 61.2135 19.5341 61.0355 19.8636C60.8613 20.1894 60.7723 20.5473 60.7685 20.9375V22.1477C60.7685 22.6553 60.8613 23.0909 61.0469 23.4545C61.2325 23.8144 61.492 24.0909 61.8253 24.2841C62.1586 24.4735 62.5488 24.5682 62.9957 24.5682C63.295 24.5682 63.5658 24.5265 63.8082 24.4432C64.0507 24.3561 64.2609 24.2292 64.4389 24.0625C64.617 23.8958 64.7514 23.6894 64.8423 23.4432L66.7628 23.6591C66.6416 24.1667 66.4105 24.6098 66.0696 24.9886C65.7325 25.3636 65.3007 25.6553 64.7741 25.8636C64.2476 26.0682 63.6454 26.1705 62.9673 26.1705ZM72.3949 26.1705C71.5237 26.1705 70.7756 25.9792 70.1506 25.5966C69.5294 25.214 69.0502 24.6856 68.7131 24.0114C68.3797 23.3333 68.2131 22.553 68.2131 21.6705C68.2131 20.7841 68.3835 20.0019 68.7244 19.3239C69.0653 18.642 69.5464 18.1117 70.1676 17.733C70.7926 17.3504 71.5313 17.1591 72.3835 17.1591C73.0919 17.1591 73.7188 17.2898 74.2642 17.5511C74.8134 17.8087 75.2509 18.1742 75.5767 18.6477C75.9025 19.1174 76.0881 19.6667 76.1335 20.2955H74.1676C74.0881 19.875 73.8987 19.5246 73.5994 19.2443C73.304 18.9602 72.9081 18.8182 72.4119 18.8182C71.9915 18.8182 71.6222 18.9318 71.304 19.1591C70.9858 19.3826 70.7377 19.7045 70.5597 20.125C70.3854 20.5455 70.2983 21.0492 70.2983 21.6364C70.2983 22.2311 70.3854 22.7424 70.5597 23.1705C70.7339 23.5947 70.9782 23.9223 71.2926 24.1534C71.6108 24.3807 71.9839 24.4943 72.4119 24.4943C72.715 24.4943 72.9858 24.4375 73.2244 24.3239C73.4669 24.2064 73.6695 24.0379 73.8324 23.8182C73.9953 23.5985 74.107 23.3314 74.1676 23.017H76.1335C76.0843 23.6345 75.9025 24.1818 75.5881 24.6591C75.2737 25.1326 74.8456 25.5038 74.304 25.7727C73.7623 26.0379 73.1259 26.1705 72.3949 26.1705ZM82.1804 17.2727V18.8636H77.1634V17.2727H82.1804ZM78.402 15.1818H80.4588V23.375C80.4588 23.6515 80.5005 23.8636 80.5838 24.0114C80.6709 24.1553 80.7846 24.2538 80.9247 24.3068C81.0649 24.3598 81.2202 24.3864 81.3906 24.3864C81.5194 24.3864 81.6368 24.3769 81.7429 24.358C81.8527 24.339 81.9361 24.322 81.9929 24.3068L82.3395 25.9148C82.2296 25.9527 82.0724 25.9943 81.8679 26.0398C81.6671 26.0852 81.4209 26.1117 81.1293 26.1193C80.6141 26.1345 80.1501 26.0568 79.7372 25.8864C79.3243 25.7121 78.9967 25.4432 78.7543 25.0795C78.5156 24.7159 78.3982 24.2614 78.402 23.7159V15.1818ZM98.358 20.1818C98.358 21.4356 98.1231 22.5095 97.6534 23.4034C97.1875 24.2936 96.5511 24.9754 95.7443 25.4489C94.9413 25.9223 94.0303 26.1591 93.0114 26.1591C91.9924 26.1591 91.0795 25.9223 90.2727 25.4489C89.4697 24.9716 88.8333 24.2879 88.3636 23.3977C87.8977 22.5038 87.6648 21.4318 87.6648 20.1818C87.6648 18.928 87.8977 17.8561 88.3636 16.9659C88.8333 16.072 89.4697 15.3883 90.2727 14.9148C91.0795 14.4413 91.9924 14.2045 93.0114 14.2045C94.0303 14.2045 94.9413 14.4413 95.7443 14.9148C96.5511 15.3883 97.1875 16.072 97.6534 16.9659C98.1231 17.8561 98.358 18.928 98.358 20.1818ZM96.2386 20.1818C96.2386 19.2992 96.1004 18.5549 95.8239 17.9489C95.5511 17.339 95.1723 16.8788 94.6875 16.5682C94.2027 16.2538 93.6439 16.0966 93.0114 16.0966C92.3788 16.0966 91.8201 16.2538 91.3352 16.5682C90.8504 16.8788 90.4697 17.339 90.1932 17.9489C89.9205 18.5549 89.7841 19.2992 89.7841 20.1818C89.7841 21.0644 89.9205 21.8106 90.1932 22.4205C90.4697 23.0265 90.8504 23.4867 91.3352 23.8011C91.8201 24.1117 92.3788 24.267 93.0114 24.267C93.6439 24.267 94.2027 24.1117 94.6875 23.8011C95.1723 23.4867 95.5511 23.0265 95.8239 22.4205C96.1004 21.8106 96.2386 21.0644 96.2386 20.1818ZM100.26 26V17.2727H102.254V18.7273H102.345C102.504 18.2235 102.777 17.8352 103.163 17.5625C103.554 17.286 103.999 17.1477 104.499 17.1477C104.612 17.1477 104.739 17.1534 104.879 17.1648C105.023 17.1723 105.143 17.1856 105.237 17.2045V19.0966C105.15 19.0663 105.012 19.0398 104.822 19.017C104.637 18.9905 104.457 18.9773 104.283 18.9773C103.908 18.9773 103.571 19.0587 103.271 19.2216C102.976 19.3807 102.743 19.6023 102.572 19.8864C102.402 20.1705 102.317 20.4981 102.317 20.8693V26H100.26ZM109.483 26.1534C108.797 26.1534 108.184 25.9773 107.642 25.625C107.1 25.2727 106.672 24.7614 106.358 24.0909C106.044 23.4205 105.886 22.6061 105.886 21.6477C105.886 20.678 106.045 19.8598 106.364 19.1932C106.686 18.5227 107.119 18.017 107.665 17.6761C108.21 17.3314 108.818 17.1591 109.489 17.1591C110 17.1591 110.42 17.2462 110.75 17.4205C111.08 17.5909 111.341 17.7973 111.534 18.0398C111.727 18.2784 111.877 18.5038 111.983 18.7159H112.068V14.3636H114.131V26H112.108V24.625H111.983C111.877 24.8371 111.723 25.0625 111.523 25.3011C111.322 25.536 111.057 25.7367 110.727 25.9034C110.398 26.0701 109.983 26.1534 109.483 26.1534ZM110.057 24.4659C110.492 24.4659 110.864 24.3485 111.17 24.1136C111.477 23.875 111.71 23.5436 111.869 23.1193C112.028 22.6951 112.108 22.2008 112.108 21.6364C112.108 21.072 112.028 20.5814 111.869 20.1648C111.714 19.7481 111.483 19.4242 111.176 19.1932C110.873 18.9621 110.5 18.8466 110.057 18.8466C109.598 18.8466 109.216 18.9659 108.909 19.2045C108.602 19.4432 108.371 19.7727 108.216 20.1932C108.061 20.6136 107.983 21.0947 107.983 21.6364C107.983 22.1818 108.061 22.6686 108.216 23.0966C108.375 23.5208 108.608 23.8561 108.915 24.1023C109.225 24.3447 109.606 24.4659 110.057 24.4659ZM120.186 26.1705C119.311 26.1705 118.555 25.9886 117.919 25.625C117.286 25.2576 116.8 24.7386 116.459 24.0682C116.118 23.3939 115.947 22.6004 115.947 21.6875C115.947 20.7898 116.118 20.0019 116.459 19.3239C116.804 18.642 117.285 18.1117 117.902 17.733C118.519 17.3504 119.245 17.1591 120.078 17.1591C120.616 17.1591 121.124 17.2462 121.601 17.4205C122.082 17.5909 122.506 17.8561 122.874 18.2159C123.245 18.5758 123.536 19.0341 123.749 19.5909C123.961 20.1439 124.067 20.803 124.067 21.5682V22.1989H116.913V20.8125H122.095C122.091 20.4186 122.006 20.0682 121.839 19.7614C121.673 19.4508 121.44 19.2064 121.141 19.0284C120.845 18.8504 120.5 18.7614 120.107 18.7614C119.686 18.7614 119.317 18.8636 118.999 19.0682C118.68 19.2689 118.432 19.5341 118.254 19.8636C118.08 20.1894 117.991 20.5473 117.987 20.9375V22.1477C117.987 22.6553 118.08 23.0909 118.266 23.4545C118.451 23.8144 118.711 24.0909 119.044 24.2841C119.377 24.4735 119.768 24.5682 120.214 24.5682C120.514 24.5682 120.785 24.5265 121.027 24.4432C121.269 24.3561 121.48 24.2292 121.658 24.0625C121.836 23.8958 121.97 23.6894 122.061 23.4432L123.982 23.6591C123.86 24.1667 123.629 24.6098 123.288 24.9886C122.951 25.3636 122.519 25.6553 121.993 25.8636C121.466 26.0682 120.864 26.1705 120.186 26.1705ZM125.807 26V17.2727H127.801V18.7273H127.892C128.051 18.2235 128.324 17.8352 128.71 17.5625C129.1 17.286 129.545 17.1477 130.045 17.1477C130.159 17.1477 130.286 17.1534 130.426 17.1648C130.57 17.1723 130.689 17.1856 130.784 17.2045V19.0966C130.697 19.0663 130.559 19.0398 130.369 19.017C130.184 18.9905 130.004 18.9773 129.83 18.9773C129.455 18.9773 129.117 19.0587 128.818 19.2216C128.523 19.3807 128.29 19.6023 128.119 19.8864C127.949 20.1705 127.864 20.4981 127.864 20.8693V26H125.807Z" fill="black"/>
<defs>
<filter id="filter0_d_144_47" x="0" y="0" width="170" height="49" filterUnits="userSpaceOnUse" color-interpolation-filters="sRGB">
<feFlood flood-opacity="0" result="BackgroundImageFix"/>
<feColorMatrix in="SourceAlpha" type="matrix" values="0 0 0 0 0 0 0 0 0 0 0 0 0 0 0 0 0 0 127 0" result="hardAlpha"/>
<feOffset dy="4"/>
<feGaussianBlur stdDeviation="2"/>
<feComposite in2="hardAlpha" operator="out"/>
<feColorMatrix type="matrix" values="0 0 0 0 0 0 0 0 0 0 0 0 0 0 0 0 0 0 0.25 0"/>
<feBlend mode="normal" in2="BackgroundImageFix" result="effect1_dropShadow_144_47"/>
<feBlend mode="normal" in="SourceGraphic" in2="effect1_dropShadow_144_47" result="shape"/>
</filter>
</defs>
</svg>
